<svg xmlns="http://www.w3.org/2000/svg" width="1200" height="630" viewBox="0 0 1200 630" role="img" aria-labelledby="title desc" shape-rendering="geometricPrecision">
  <title id="title">Mega Vault Viewer social preview</title>
  <desc id="desc">Social preview for a local-first desktop reader for large mixed-format knowledge vaults.</desc>
  <defs>
    <linearGradient id="background" x1="0" x2="1" y1="0" y2="1">
      <stop offset="0" stop-color="#0f172a"/>
      <stop offset="1" stop-color="#111827"/>
    </linearGradient>
    <linearGradient id="index" x1="0" x2="1" y1="0" y2="1">
      <stop offset="0" stop-color="#22d3ee"/>
      <stop offset="1" stop-color="#14b8a6"/>
    </linearGradient>
  </defs>

  <rect width="1200" height="630" fill="url(#background)"/>
  <rect x="64" y="70" width="1072" height="490" rx="24" fill="#f8fafc"/>

  <text x="110" y="170" fill="#0f172a" font-family="Arial, Helvetica, sans-serif" font-size="70" font-weight="700">Mega Vault</text>
  <text x="110" y="246" fill="#0f172a" font-family="Arial, Helvetica, sans-serif" font-size="70" font-weight="700">Viewer</text>
  <text x="114" y="302" fill="#475569" font-family="Arial, Helvetica, sans-serif" font-size="28">Local-first reader for large knowledge vaults.</text>

  <g transform="translate(112 444)">
    <rect width="170" height="52" rx="10" fill="#0f172a"/>
    <rect x="198" width="170" height="52" rx="10" fill="#22d3ee"/>
    <rect x="396" width="170" height="52" rx="10" fill="#facc15"/>
  </g>

  <g transform="translate(660 156)">
    <rect x="0" y="84" width="124" height="44" rx="10" fill="#e2e8f0"/>
    <rect x="0" y="158" width="164" height="44" rx="10" fill="#e2e8f0"/>
    <rect x="0" y="232" width="108" height="44" rx="10" fill="#e2e8f0"/>
    <path d="M178 254c34 0 52-26 68-70" fill="none" stroke="#94a3b8" stroke-width="8" stroke-linecap="round"/>
    <circle cx="260" cy="180" r="74" fill="url(#index)"/>
    <circle cx="260" cy="180" r="40" fill="#ecfeff"/>
    <path d="M328 180h44" stroke="#94a3b8" stroke-width="8" stroke-linecap="round"/>
    <rect x="386" y="116" width="78" height="128" rx="14" fill="#111827"/>
    <rect x="404" y="146" width="42" height="12" rx="6" fill="#22d3ee"/>
    <rect x="404" y="180" width="48" height="10" rx="5" fill="#cbd5e1"/>
    <rect x="404" y="208" width="34" height="10" rx="5" fill="#cbd5e1"/>
  </g>
</svg>
